<svg version="1.1" xmlns="http://www.w3.org/2000/svg" viewBox="0 0 896 567" width="1792" height="1134">
  <!-- svg-source:excalidraw -->
  
  <defs>
    <style class="style-fonts">
      @font-face {
        font-family: "Virgil";
        src: url("https://excalidraw.com/Virgil.woff2");
      }
      @font-face {
        font-family: "Cascadia";
        src: url("https://excalidraw.com/Cascadia.woff2");
      }
    </style>
    
  </defs>
  <g stroke-linecap="round" transform="translate(10 88) rotate(0 125.5 234.5)"><path d="M32 0 M32 0 C102.21 -1.9, 171.04 -1.22, 219 0 M32 0 C85.03 -0.16, 140.16 1.08, 219 0 M219 0 C241.48 0.88, 251.48 10.54, 251 32 M219 0 C240.89 -0.38, 251.81 9.42, 251 32 M251 32 C250.39 126.3, 251.55 223.44, 251 437 M251 32 C252.4 188.99, 252.12 344.93, 251 437 M251 437 C250.41 458.68, 242.04 468.8, 219 469 M251 437 C251.62 457.38, 241.43 469.18, 219 469 M219 469 C146.24 469.23, 70.24 470.69, 32 469 M219 469 C169.09 469.81, 120.11 469.06, 32 469 M32 469 C12.49 467.12, -0.29 457.48, 0 437 M32 469 C10.28 470.98, -1.31 460.63, 0 437 M0 437 C-1.05 310.05, -0.34 184.03, 0 32 M0 437 C0.41 276.35, 0.39 115.8, 0 32 M0 32 C0.14 12.6, 11.63 -1.01, 32 0 M0 32 C-0.08 9.38, 11.8 -0.52, 32 0" stroke="#1971c2" stroke-width="1" fill="none"></path></g><g stroke-linecap="round" transform="translate(331 10) rotate(0 110.5 55.5)"><path d="M6.73 7.18 C6.73 7.18, 6.73 7.18, 6.73 7.18 M6.73 7.18 C6.73 7.18, 6.73 7.18, 6.73 7.18 M6.47 13.57 C9.66 11.76, 11.11 7.9, 16.31 2.25 M6.47 13.57 C10.47 9.58, 13.94 6.01, 16.31 2.25 M2.93 23.74 C11.57 15.19, 17.14 5.49, 22.61 1.1 M2.93 23.74 C8.94 15.78, 16.69 8.92, 22.61 1.1 M3.32 29.39 C10.55 20.13, 16.81 10.75, 28.25 0.71 M3.32 29.39 C13.22 17.99, 23.37 7.36, 28.25 0.71 M3.06 35.79 C13.44 24.07, 23.75 13.37, 33.9 0.31 M3.06 35.79 C10.42 28.91, 16.49 20.6, 33.9 0.31 M2.8 42.18 C15.98 26.65, 27.87 14.42, 38.88 0.67 M2.8 42.18 C16.45 26.49, 30.94 9.43, 38.88 0.67 M3.19 47.83 C12.16 38.1, 24.05 24.35, 44.53 0.28 M3.19 47.83 C13.82 35.73, 23.7 24.57, 44.53 0.28 M2.93 54.22 C11.77 43.76, 22.65 29.82, 49.51 0.64 M2.93 54.22 C17.14 37.59, 31.8 21.85, 49.51 0.64 M3.33 59.87 C14.52 46.58, 29.65 28.29, 55.16 0.25 M3.33 59.87 C15.52 44.43, 28.3 30.82, 55.16 0.25 M3.07 66.27 C22.61 41.68, 43.83 20.73, 60.14 0.61 M3.07 66.27 C14.88 53.59, 27.67 39.42, 60.14 0.61 M2.8 72.66 C20.84 50.99, 39.33 30.94, 65.79 0.21 M2.8 72.66 C18.69 52.97, 35.59 35.75, 65.79 0.21 M3.2 78.31 C17.07 59.75, 33.14 44, 70.77 0.57 M3.2 78.31 C19.41 59.97, 36.75 40.37, 70.77 0.57 M2.94 84.7 C17.86 66.38, 32.12 50.92, 75.76 0.93 M2.94 84.7 C25.94 58.69, 46.67 34.58, 75.76 0.93 M2.68 91.1 C29.43 59.85, 59.3 28.78, 81.4 0.54 M2.68 91.1 C25.42 66.8, 47.47 40.68, 81.4 0.54 M3.73 95.99 C21.9 71.77, 42.41 53.53, 86.39 0.9 M3.73 95.99 C24.51 73.49, 44.92 49.42, 86.39 0.9 M4.78 100.88 C28.82 73.76, 51.17 50.56, 92.03 0.5 M4.78 100.88 C31.73 70.95, 58.51 40.44, 92.03 0.5 M7.8 103.5 C35.44 69.9, 63.63 41.49, 97.02 0.86 M7.8 103.5 C38.21 70.24, 67.93 35.16, 97.02 0.86 M10.16 106.88 C44.37 70.19, 76.51 29.12, 102.66 0.47 M10.16 106.88 C47.26 64.46, 83.76 20.38, 102.66 0.47 M13.18 109.51 C42.98 73.23, 74.55 36.85, 107.65 0.83 M13.18 109.51 C35.39 82.43, 58.94 55.33, 107.65 0.83 M17.51 110.62 C45.48 78.49, 73.25 48.61, 113.29 0.43 M17.51 110.62 C52.54 70.56, 87.88 29.09, 113.29 0.43 M21.84 111.74 C54.74 79.42, 84.39 40.63, 118.28 0.79 M21.84 111.74 C48.28 82.48, 74.56 53.05, 118.28 0.79 M27.48 111.34 C58.35 75.44, 87.47 40.64, 123.92 0.4 M27.48 111.34 C60.2 75.95, 90.16 39.96, 123.92 0.4 M33.13 110.95 C57.25 82.47, 80.61 56.77, 128.91 0.76 M33.13 110.95 C58.03 79.26, 84.83 50.58, 128.91 0.76 M38.11 111.31 C71.08 73.6, 104.67 31.97, 134.55 0.36 M38.11 111.31 C64.72 80.66, 92.06 50.42, 134.55 0.36 M43.76 110.91 C66.48 84.93, 88.54 63.2, 139.54 0.72 M43.76 110.91 C77.41 70.02, 112.61 30.29, 139.54 0.72 M48.74 111.27 C83.83 69.69, 119.64 27.78, 145.18 0.33 M48.74 111.27 C80.84 72.95, 116.25 33.66, 145.18 0.33 M54.39 110.88 C85.9 77.48, 116.07 39.99, 150.17 0.69 M54.39 110.88 C79.3 82.92, 103.44 56.67, 150.17 0.69 M59.37 111.24 C95.2 70.7, 131.36 29.21, 155.81 0.29 M59.37 111.24 C97.09 67.78, 135.89 25.14, 155.81 0.29 M65.02 110.84 C92.7 76.07, 122.15 42.79, 160.8 0.66 M65.02 110.84 C88.94 84.49, 112.77 56.24, 160.8 0.66 M70 111.2 C106.23 70.69, 139.19 29.99, 166.44 0.26 M70 111.2 C104.82 72.99, 136.55 36, 166.44 0.26 M75.65 110.81 C104.48 73.7, 136.78 40.8, 171.43 0.62 M75.65 110.81 C104.03 79.19, 130.09 49.51, 171.43 0.62 M80.63 111.17 C106.03 84.58, 129.14 56.37, 177.07 0.23 M80.63 111.17 C105.13 83.25, 129.06 55.14, 177.07 0.23 M86.28 110.77 C110.37 86.22, 130.66 60.62, 182.06 0.59 M86.28 110.77 C113.6 79.57, 142.11 47, 182.06 0.59 M91.26 111.13 C122.93 75.96, 154.98 36.39, 187.7 0.19 M91.26 111.13 C119.26 78.15, 147.96 45.2, 187.7 0.19 M96.91 110.74 C123.51 80.45, 149.11 52.3, 192.69 0.55 M96.91 110.74 C116.66 88.11, 135.44 65.18, 192.69 0.55 M101.89 111.1 C138.43 68.86, 174.9 27.48, 196.37 2.42 M101.89 111.1 C134.04 73.27, 167.69 36.86, 196.37 2.42 M107.54 110.7 C140.92 70.77, 178 28.6, 202.01 2.03 M107.54 110.7 C144.18 67.63, 180.32 25.31, 202.01 2.03 M112.52 111.06 C132.2 87.24, 149.6 65.74, 205.68 3.9 M112.52 111.06 C147.55 71.36, 182.92 31.13, 205.68 3.9 M118.17 110.67 C141.03 83.16, 162.91 59.12, 210.67 4.26 M118.17 110.67 C136.28 89.77, 155.64 68.05, 210.67 4.26 M123.15 111.03 C144.92 85.23, 165.29 64.11, 213.69 6.88 M123.15 111.03 C149.54 81.21, 175.45 51.06, 213.69 6.88 M128.14 111.39 C156.98 79.72, 186.81 44.59, 216.05 10.26 M128.14 111.39 C149.41 87.21, 169.31 63.35, 216.05 10.26 M133.78 111 C161.77 75.65, 189.38 45.54, 219.07 12.88 M133.78 111 C157.13 83.5, 182.28 55.45, 219.07 12.88 M138.77 111.36 C172.22 75.4, 203.88 38.9, 220.78 17.02 M138.77 111.36 C156.89 89.5, 177.29 67.9, 220.78 17.02 M144.41 110.96 C164.64 87.92, 184.66 64.65, 221.83 21.91 M144.41 110.96 C166.28 88.15, 185.68 63.82, 221.83 21.91 M149.4 111.32 C175.29 82.93, 197.33 55.64, 221.57 28.3 M149.4 111.32 C166.39 92.69, 182.18 73.73, 221.57 28.3 M155.04 110.93 C177.33 83.9, 202.94 57.35, 221.96 33.95 M155.04 110.93 C173.49 89.65, 191.31 70.05, 221.96 33.95 M160.03 111.29 C177.03 92.22, 193.38 74.7, 221.7 40.34 M160.03 111.29 C182.52 84.69, 207.33 56.68, 221.7 40.34 M165.67 110.89 C180.16 96.79, 190.31 81.62, 222.09 45.99 M165.67 110.89 C177.26 98.03, 190.44 84.67, 222.09 45.99 M170.66 111.25 C187.19 91.49, 203.21 71.55, 221.83 52.39 M170.66 111.25 C187.28 91.81, 203.28 73.06, 221.83 52.39 M176.3 110.86 C190.79 95.86, 206.31 79.27, 221.57 58.78 M176.3 110.86 C192.82 94.51, 206.31 75.76, 221.57 58.78 M181.29 111.22 C194.75 96.37, 203.99 82.52, 221.97 64.43 M181.29 111.22 C193.75 98.75, 203.66 85.46, 221.97 64.43 M186.93 110.82 C198.1 100.38, 206.81 87.71, 221.7 70.82 M186.93 110.82 C200.64 95.84, 213.54 80.81, 221.7 70.82 M191.92 111.18 C197.86 101.31, 205.23 96.28, 222.1 76.47 M191.92 111.18 C199.64 102.25, 208.75 92.67, 222.1 76.47 M195.6 113.05 C203.96 103.7, 210.69 92.85, 221.18 83.62 M195.6 113.05 C201.47 105.16, 207.17 99.57, 221.18 83.62 M201.89 111.9 C209.25 103.65, 216.25 95.4, 220.92 90.02 M201.89 111.9 C208.35 105.54, 214.3 96.42, 220.92 90.02" stroke="#a5d8ff" stroke-width="0.5" fill="none"></path><path d="M27.75 0 M27.75 0 C88.09 0.2, 145.72 -0.28, 193.25 0 M27.75 0 C68 1.34, 107.79 0.76, 193.25 0 M193.25 0 C210.92 0.96, 221.16 11.16, 221 27.75 M193.25 0 C209.76 -0.17, 222.36 9.68, 221 27.75 M221 27.75 C220.48 42.02, 220.06 57.79, 221 83.25 M221 27.75 C220.08 41.33, 220.59 55.03, 221 83.25 M221 83.25 C222.72 100.61, 213.74 111.27, 193.25 111 M221 83.25 C221.01 101.99, 209.61 111.04, 193.25 111 M193.25 111 C147.91 113.82, 103.08 113.15, 27.75 111 M193.25 111 C148.47 111.6, 101.26 111.08, 27.75 111 M27.75 111 C8.13 111.99, -0.46 103.45, 0 83.25 M27.75 111 C10.38 112.05, -0.44 99.86, 0 83.25 M0 83.25 C1.49 69.44, -0.79 55.76, 0 27.75 M0 83.25 C0.5 69.34, 1.13 56.14, 0 27.75 M0 27.75 C-0.48 10.08, 10.93 -1.32, 27.75 0 M0 27.75 C-0.99 7.28, 11.29 0.44, 27.75 0" stroke="#1971c2" stroke-width="1" fill="none"></path></g><g transform="translate(415.53333282470703 53) rotate(0 25.96666717529297 12.5)"><text x="25.96666717529297" y="0" font-family="Virgil, Segoe UI Emoji" font-size="20px" fill="#1971c2" text-anchor="middle" style="white-space: pre;" direction="ltr" dominant-baseline="text-before-edge">Cloud</text></g><g stroke-linecap="round" transform="translate(24 258) rotate(0 118 63.5)"><path d="M7.8 8.1 C7.8 8.1, 7.8 8.1, 7.8 8.1 M7.8 8.1 C7.8 8.1, 7.8 8.1, 7.8 8.1 M7.53 14.5 C9.24 11.09, 12.78 6.85, 18.03 2.42 M7.53 14.5 C10.48 9.91, 15.14 6.05, 18.03 2.42 M2.68 26.18 C7.28 19.41, 13.24 13.46, 24.33 1.27 M2.68 26.18 C12.09 15.44, 21.05 6.61, 24.33 1.27 M2.42 32.58 C6.8 24.31, 12.94 16.76, 29.97 0.88 M2.42 32.58 C12.16 20.59, 21.63 9.48, 29.97 0.88 M2.81 38.22 C13.99 23.82, 29.54 10.94, 34.3 1.99 M2.81 38.22 C13.25 26.07, 23.6 14.13, 34.3 1.99 M2.55 44.62 C11.95 34.48, 16.88 27.12, 39.29 2.35 M2.55 44.62 C15.29 29.2, 27.75 14.89, 39.29 2.35 M2.95 50.26 C19.27 31.8, 36.51 15.09, 44.93 1.96 M2.95 50.26 C15.82 36.24, 27.32 21.88, 44.93 1.96 M2.68 56.66 C17.62 41.17, 30.54 21.97, 49.92 2.32 M2.68 56.66 C18.6 38.56, 33.78 22.01, 49.92 2.32 M2.42 63.06 C19.07 43.21, 39.97 22.05, 55.56 1.93 M2.42 63.06 C17.9 46.42, 30.34 30.9, 55.56 1.93 M2.82 68.7 C27.55 43.46, 50.54 18.56, 60.55 2.29 M2.82 68.7 C18.28 51.93, 32.98 34.3, 60.55 2.29 M2.56 75.1 C24.9 48.44, 48.94 22.66, 66.19 1.89 M2.56 75.1 C21.94 53.71, 39.31 32.5, 66.19 1.89 M2.95 80.74 C27.39 50.81, 55.64 20.59, 71.18 2.25 M2.95 80.74 C17.26 64.65, 32.14 47.61, 71.18 2.25 M2.69 87.14 C22.56 66.49, 41.56 43.76, 76.82 1.86 M2.69 87.14 C19.27 68.45, 34.34 50.49, 76.82 1.86 M2.43 93.54 C24.64 68.84, 44.67 45.65, 81.81 2.22 M2.43 93.54 C29.49 63.6, 55.34 33.38, 81.81 2.22 M2.82 99.18 C35.05 60.06, 69.15 22.18, 87.45 1.82 M2.82 99.18 C25.06 73.93, 50.07 46.81, 87.45 1.82 M3.22 104.82 C22.3 83.91, 41.34 63.79, 92.44 2.18 M3.22 104.82 C30.53 73.02, 57.67 40.68, 92.44 2.18 M4.27 109.71 C29.51 84.2, 54.28 54.17, 98.08 1.79 M4.27 109.71 C35.5 74.12, 65.94 38.4, 98.08 1.79 M4.66 115.35 C35.51 80.51, 60.86 48.79, 103.07 2.15 M4.66 115.35 C35.62 77.2, 69.02 39.74, 103.07 2.15 M7.68 117.98 C39.56 81.79, 70.3 47.59, 108.71 1.75 M7.68 117.98 C32.53 89.55, 57.72 60.8, 108.71 1.75 M10.7 120.6 C50.54 71.92, 90.04 25.41, 113.7 2.11 M10.7 120.6 C38.58 86.67, 67.48 53.27, 113.7 2.11 M13.72 123.23 C47.59 80.9, 83.42 44.2, 118.69 2.47 M13.72 123.23 C45.36 87.7, 77.93 51.01, 118.69 2.47 M17.39 125.1 C42.57 95.38, 68.56 65.17, 124.33 2.08 M17.39 125.1 C55.82 78.99, 96.25 33.4, 124.33 2.08 M21.72 126.21 C46.04 96.41, 71.52 69.15, 129.32 2.44 M21.72 126.21 C62.84 78.35, 103.01 31.47, 129.32 2.44 M25.4 128.08 C48.33 101.78, 73.61 75.25, 134.96 2.04 M25.4 128.08 C60.66 88.1, 95.9 46.12, 134.96 2.04 M31.04 127.69 C62.83 93.33, 94.48 53.77, 139.95 2.4 M31.04 127.69 C72.85 80.22, 112.13 34.14, 139.95 2.4 M34.72 129.56 C66.95 93.82, 99.11 53.77, 145.59 2.01 M34.72 129.56 C75.26 85.04, 114.89 39.32, 145.59 2.01 M39.7 129.92 C74.83 90.36, 110.55 48.9, 150.58 2.37 M39.7 129.92 C84.91 81.17, 128.48 30.19, 150.58 2.37 M45.35 129.52 C85.14 82.57, 125.98 38.58, 156.22 1.98 M45.35 129.52 C66.27 103.62, 89.94 77.92, 156.22 1.98 M50.33 129.88 C75.5 98.65, 101.85 68.61, 161.21 2.34 M50.33 129.88 C88.89 86.7, 126.22 43.15, 161.21 2.34 M55.98 129.49 C91.03 92.74, 123.16 53.85, 166.85 1.94 M55.98 129.49 C88.48 91.25, 121.77 52.71, 166.85 1.94 M60.96 129.85 C96.92 85.21, 134.42 43.57, 171.84 2.3 M60.96 129.85 C98.65 84.04, 137.49 40.62, 171.84 2.3 M66.61 129.45 C89.42 100.83, 112.69 71.13, 177.48 1.91 M66.61 129.45 C91.69 102.7, 113.93 74.91, 177.48 1.91 M71.6 129.81 C98.24 96.09, 129.7 62.26, 182.47 2.27 M71.6 129.81 C109.91 86.42, 147.33 42.36, 182.47 2.27 M77.24 129.42 C112.44 87.19, 150.43 46.67, 188.11 1.87 M77.24 129.42 C121.79 80.16, 163.9 30.16, 188.11 1.87 M82.23 129.78 C122.09 81.68, 164.7 33.08, 193.1 2.23 M82.23 129.78 C110.37 96.33, 140.84 63.18, 193.1 2.23 M87.87 129.38 C112.94 105.44, 132.97 79.33, 198.74 1.84 M87.87 129.38 C110.26 101.47, 132.83 73.91, 198.74 1.84 M92.86 129.74 C134.7 79.61, 177.45 33.15, 205.04 0.69 M92.86 129.74 C122.08 96.67, 152.05 62.22, 205.04 0.69 M98.5 129.35 C133.49 86.31, 170 47.61, 210.03 1.05 M98.5 129.35 C137.43 84.87, 177.14 39.68, 210.03 1.05 M103.49 129.71 C138.02 91.36, 175.45 48.3, 214.36 2.16 M103.49 129.71 C137.23 90.92, 171.57 50.11, 214.36 2.16 M109.13 129.31 C150.87 84.99, 190.16 38.59, 219.35 2.52 M109.13 129.31 C130.74 102.29, 153.15 77.54, 219.35 2.52 M114.12 129.67 C158.54 82.08, 198.57 33.53, 223.02 4.39 M114.12 129.67 C152.98 85.11, 192.42 40.22, 223.02 4.39 M119.76 129.28 C149.07 93.49, 178.94 62.36, 226.04 7.02 M119.76 129.28 C148.36 97.7, 176.68 64.27, 226.04 7.02 M124.75 129.64 C160.14 91.02, 194.1 55.75, 229.06 9.64 M124.75 129.64 C165.07 82.25, 207.05 34.07, 229.06 9.64 M130.39 129.25 C153.04 102.28, 176.13 73.97, 232.08 12.27 M130.39 129.25 C164.73 89.25, 200.22 49.96, 232.08 12.27 M135.38 129.61 C170.44 89.85, 210.33 44.1, 233.13 17.15 M135.38 129.61 C155.96 106.23, 176.28 81.04, 233.13 17.15 M141.02 129.21 C162.48 105.71, 186.58 77.1, 234.84 21.29 M141.02 129.21 C173.23 90.49, 208.28 51.14, 234.84 21.29 M146.01 129.57 C178.87 90.2, 215.06 49.21, 236.54 25.42 M146.01 129.57 C182.14 88.09, 217.88 46.76, 236.54 25.42 M150.99 129.93 C181.12 93.81, 213.12 60.49, 236.94 31.06 M150.99 129.93 C178.63 96.55, 207.76 62.86, 236.94 31.06 M156.64 129.54 C180.98 103.72, 200.07 77.54, 236.67 37.46 M156.64 129.54 C185.65 95.73, 214.35 62.14, 236.67 37.46 M161.62 129.9 C181.42 105.62, 205.8 80.15, 237.07 43.1 M161.62 129.9 C177.6 112.07, 193.15 93.41, 237.07 43.1 M167.27 129.5 C192.01 101.74, 219.19 72.58, 236.81 49.5 M167.27 129.5 C190.42 103.96, 212.21 76.77, 236.81 49.5 M172.25 129.86 C197.05 102.83, 217.29 77.02, 236.55 55.9 M172.25 129.86 C186.33 114.29, 199.98 96.41, 236.55 55.9 M177.9 129.47 C192.07 113.48, 208.66 94.02, 236.94 61.54 M177.9 129.47 C196.58 109.23, 216.17 87.03, 236.94 61.54 M182.88 129.83 C201.93 108.81, 221.94 86.99, 236.68 67.94 M182.88 129.83 C201.37 108.78, 220.44 87.59, 236.68 67.94 M188.53 129.43 C203.58 108.68, 220.44 89.04, 237.07 73.58 M188.53 129.43 C204.97 109.64, 222.01 90.7, 237.07 73.58 M193.51 129.79 C207.62 113.77, 220.94 100.67, 236.81 79.98 M193.51 129.79 C204.74 118.7, 214.16 105.9, 236.81 79.98 M199.16 129.4 C212.73 113.62, 227.43 98.2, 237.21 85.63 M199.16 129.4 C210.59 117.13, 219.94 104.37, 237.21 85.63 M205.46 128.25 C214.58 118.59, 222.77 108.92, 236.95 92.02 M205.46 128.25 C213.06 118.77, 221.51 110.17, 236.95 92.02 M211.75 127.1 C219.98 117.46, 227.78 106.86, 238 96.91 M211.75 127.1 C220.86 114.84, 230.91 102.97, 238 96.91 M218.71 125.2 C225.09 118.37, 230.28 112.49, 237.08 104.06 M218.71 125.2 C224.58 119.38, 231.01 112.34, 237.08 104.06" stroke="#ffc9c9" stroke-width="0.5" fill="none"></path><path d="M31.75 0 M31.75 0 C70.33 -2.18, 107.57 1.22, 204.25 0 M31.75 0 C82.32 -0.77, 133.6 -0.93, 204.25 0 M204.25 0 C223.6 1.19, 236.84 10.98, 236 31.75 M204.25 0 C225.52 -0.91, 235.19 12.1, 236 31.75 M236 31.75 C236.75 56.1, 234.96 79.82, 236 95.25 M236 31.75 C236.94 56.33, 236.31 78.95, 236 95.25 M236 95.25 C234.57 117.75, 226.69 127.68, 204.25 127 M236 95.25 C237.82 114.92, 226.22 129, 204.25 127 M204.25 127 C134.63 127.41, 69.69 126.3, 31.75 127 M204.25 127 C161.63 127.46, 119.49 128.48, 31.75 127 M31.75 127 C10.26 127.97, -0.16 114.72, 0 95.25 M31.75 127 C9.9 126.37, 0.88 116.41, 0 95.25 M0 95.25 C-1.32 81.29, 0.38 66.55, 0 31.75 M0 95.25 C0.82 76.91, 0.02 59.46, 0 31.75 M0 31.75 C0.33 8.68, 12.05 -1.85, 31.75 0 M0 31.75 C1.96 8.35, 10.56 1.46, 31.75 0" stroke="#1971c2" stroke-width="1" fill="none"></path></g><g transform="translate(106.13333511352539 309) rotate(0 35.86666488647461 12.5)"><text x="35.86666488647461" y="0" font-family="Virgil, Segoe UI Emoji" font-size="20px" fill="#1971c2" text-anchor="middle" style="white-space: pre;" direction="ltr" dominant-baseline="text-before-edge">Camera</text></g><g stroke-linecap="round" transform="translate(609 255) rotate(0 138.5 70.5)"><path d="M7.86 8.16 C7.86 8.16, 7.86 8.16, 7.86 8.16 M7.86 8.16 C7.86 8.16, 7.86 8.16, 7.86 8.16 M3.66 19.09 C7.65 15.42, 10.23 12.86, 18.1 2.48 M3.66 19.09 C9.03 12.75, 15.1 5.37, 18.1 2.48 M2.75 26.24 C7.13 19.78, 15.45 11.31, 24.4 1.33 M2.75 26.24 C7.65 20.83, 12.69 14.53, 24.4 1.33 M2.48 32.64 C13.36 18.03, 25.89 7.75, 30.7 0.18 M2.48 32.64 C11.8 22.16, 21.88 8.89, 30.7 0.18 M2.88 38.28 C10.35 29.24, 21.82 18.66, 34.37 2.05 M2.88 38.28 C14.75 24.45, 27.74 10.01, 34.37 2.05 M2.62 44.68 C13.76 28.76, 28.07 14.54, 39.36 2.41 M2.62 44.68 C13.21 32.36, 24.93 18, 39.36 2.41 M2.36 51.07 C13.57 33.96, 28.36 20.54, 45 2.02 M2.36 51.07 C16.11 36.54, 29.15 22.36, 45 2.02 M2.75 56.72 C19.37 40.5, 34.98 23.03, 49.99 2.38 M2.75 56.72 C18.88 38.53, 35.19 18.72, 49.99 2.38 M2.49 63.11 C17.26 49.98, 27.83 34.86, 55.63 1.98 M2.49 63.11 C16.66 46.34, 32.37 28.4, 55.63 1.98 M2.88 68.76 C18.43 48.68, 34.8 30.21, 60.62 2.34 M2.88 68.76 C14.86 53.33, 29.05 40.6, 60.62 2.34 M2.62 75.16 C22.93 50.82, 45.84 26.57, 66.26 1.95 M2.62 75.16 C27.03 47.95, 50.3 20.52, 66.26 1.95 M2.36 81.55 C22.6 57.77, 47.47 33.42, 71.25 2.31 M2.36 81.55 C23.1 58.23, 43.41 34.33, 71.25 2.31 M2.76 87.2 C29.66 59.36, 53.32 26.13, 76.89 1.91 M2.76 87.2 C27.71 58.44, 50.66 31.89, 76.89 1.91 M2.49 93.59 C17.62 75.24, 34.32 55.85, 81.88 2.27 M2.49 93.59 C34.59 56.85, 66.5 20.71, 81.88 2.27 M2.89 99.24 C32.59 65.05, 59.16 30.31, 87.52 1.88 M2.89 99.24 C26.57 72.07, 48.81 45.64, 87.52 1.88 M2.63 105.64 C23.13 82.94, 39.08 62.04, 92.51 2.24 M2.63 105.64 C36.23 65.66, 71.91 26.56, 92.51 2.24 M2.37 112.03 C29.59 78.18, 59.29 45.27, 98.15 1.85 M2.37 112.03 C27.31 81.81, 52.32 53.41, 98.15 1.85 M2.1 118.43 C42.21 71.44, 82.05 25.4, 103.14 2.21 M2.1 118.43 C37.57 76.83, 73.17 34.27, 103.14 2.21 M3.81 122.56 C35.61 87.32, 66.18 54.53, 108.78 1.81 M3.81 122.56 C33.19 87.46, 64.43 52.2, 108.78 1.81 M5.52 126.7 C27.16 99.53, 53.97 72.14, 113.77 2.17 M5.52 126.7 C31.87 95.34, 59.51 61.42, 113.77 2.17 M7.22 130.83 C42.51 88.76, 80.88 46.66, 119.41 1.78 M7.22 130.83 C39.03 94.27, 72.54 56.89, 119.41 1.78 M10.24 133.46 C50.65 88.83, 89.49 44.86, 124.4 2.14 M10.24 133.46 C38.75 100.12, 70.38 65.23, 124.4 2.14 M12.61 136.83 C43.97 98.16, 76.99 60.53, 130.04 1.74 M12.61 136.83 C54.39 89.05, 94.5 43.99, 130.04 1.74 M16.94 137.95 C49.18 101.89, 78.2 67.02, 135.03 2.1 M16.94 137.95 C40.61 110.87, 65.15 82.61, 135.03 2.1 M21.27 139.06 C68.79 87.38, 116.36 32.85, 140.67 1.71 M21.27 139.06 C52.53 101.64, 84.49 64.93, 140.67 1.71 M24.94 140.93 C55.91 102.87, 86.25 66.33, 145.66 2.07 M24.94 140.93 C65.5 93.71, 104.51 47.59, 145.66 2.07 M29.93 141.29 C76.21 87.77, 120.85 34.63, 150.65 2.43 M29.93 141.29 C57.29 113.08, 83.41 82.07, 150.65 2.43 M34.26 142.41 C65.84 105.54, 94.99 73.43, 156.29 2.03 M34.26 142.41 C77.31 92.22, 121.46 41.15, 156.29 2.03 M39.25 142.77 C71.09 107.29, 99.53 74.65, 161.28 2.39 M39.25 142.77 C73.25 103.41, 109.05 61.65, 161.28 2.39 M44.89 142.37 C81.48 96.29, 120.18 52.96, 166.92 2 M44.89 142.37 C72.73 109.33, 100.7 78.6, 166.92 2 M49.88 142.73 C94.6 94.2, 141.43 40.65, 171.91 2.36 M49.88 142.73 C92.15 95.74, 131.2 48.91, 171.91 2.36 M54.87 143.09 C78.16 114.48, 101.22 86.77, 177.55 1.96 M54.87 143.09 C93.61 97.49, 133.97 52.58, 177.55 1.96 M60.51 142.7 C105.65 90.65, 147.94 40.15, 182.54 2.32 M60.51 142.7 C97.09 98.61, 135.64 55.31, 182.54 2.32 M65.5 143.06 C92.21 110.72, 122.14 81.29, 188.18 1.93 M65.5 143.06 C97.05 105.92, 129.51 69.36, 188.18 1.93 M71.14 142.67 C95.16 114.08, 123.76 83.1, 193.17 2.29 M71.14 142.67 C117.59 91.23, 160.42 40.56, 193.17 2.29 M76.13 143.03 C113.53 99.07, 155.28 50.74, 198.81 1.9 M76.13 143.03 C114.11 97.99, 153.5 53.53, 198.81 1.9 M81.77 142.63 C127.68 90.07, 171.35 38.05, 203.8 2.26 M81.77 142.63 C124.01 95.87, 165.8 48.85, 203.8 2.26 M86.76 142.99 C116.38 109.32, 147.77 74.2, 209.44 1.86 M86.76 142.99 C133.25 85.85, 182.22 30.38, 209.44 1.86 M92.4 142.6 C122.07 110.65, 148.4 79.16, 214.43 2.22 M92.4 142.6 C121.69 108.23, 151.15 75.02, 214.43 2.22 M97.39 142.96 C138.98 89.61, 187.43 41.12, 220.07 1.83 M97.39 142.96 C129.13 108.22, 159.66 73.21, 220.07 1.83 M103.03 142.56 C133.64 106.91, 166.42 73.87, 225.06 2.19 M103.03 142.56 C129.65 110.93, 155.72 82.14, 225.06 2.19 M108.02 142.92 C133.83 109.88, 161.39 80.34, 230.7 1.79 M108.02 142.92 C136.7 107.6, 167.67 71.75, 230.7 1.79 M113.66 142.53 C143.66 107.38, 172.63 74.04, 235.69 2.15 M113.66 142.53 C156.26 92.95, 197.82 44.96, 235.69 2.15 M118.65 142.89 C143.56 116.7, 168.2 85.07, 241.33 1.76 M118.65 142.89 C148.17 108.14, 177.71 73.28, 241.33 1.76 M124.29 142.49 C163.22 95.01, 204 52.23, 246.97 1.36 M124.29 142.49 C157.35 106.93, 188.37 71.15, 246.97 1.36 M129.28 142.85 C162.69 101.92, 200.18 63.17, 251.3 2.48 M129.28 142.85 C164.76 102.74, 200.61 61.1, 251.3 2.48 M134.92 142.46 C168.72 103.23, 204.34 59.54, 256.29 2.84 M134.92 142.46 C171.99 99.45, 210.02 56.38, 256.29 2.84 M139.91 142.82 C176.68 102.26, 211.4 64.03, 260.62 3.95 M139.91 142.82 C176.07 101.91, 213.2 61.42, 260.62 3.95 M145.55 142.42 C178.31 104.19, 212.24 66.79, 264.95 5.07 M145.55 142.42 C192.2 88.01, 240.06 33.88, 264.95 5.07 M150.54 142.78 C194.7 88.6, 238.95 36.5, 267.97 7.69 M150.54 142.78 C175.73 111.99, 202.35 81.51, 267.97 7.69 M156.18 142.39 C193.13 102.34, 226.91 61.4, 270.99 10.32 M156.18 142.39 C200.26 93.08, 245.38 41.67, 270.99 10.32 M161.17 142.75 C182.8 116.56, 205.69 91.67, 273.35 13.69 M161.17 142.75 C189.82 109.44, 219.16 74.65, 273.35 13.69 M166.81 142.36 C202.67 101.96, 240.03 59.95, 275.72 17.07 M166.81 142.36 C194.59 110.33, 221.61 79.37, 275.72 17.07 M171.8 142.72 C211.39 98.71, 249.15 53.75, 278.08 20.45 M171.8 142.72 C194.16 114.16, 217.55 86.77, 278.08 20.45 M176.78 143.08 C197.95 119.32, 218.43 94.65, 278.47 26.1 M176.78 143.08 C209.25 106.33, 242.57 69.64, 278.47 26.1 M182.43 142.68 C212.94 108.6, 239.42 73.84, 278.21 32.49 M182.43 142.68 C221.17 97.47, 259 53.35, 278.21 32.49 M187.41 143.04 C214.79 113.47, 239.61 82.86, 277.95 38.89 M187.41 143.04 C210.59 115.25, 235.04 86.96, 277.95 38.89 M193.06 142.65 C215.94 116.58, 237.32 95.19, 277.69 45.29 M193.06 142.65 C218.91 114.92, 243.76 86.11, 277.69 45.29 M198.04 143.01 C218.39 122.05, 236.08 97.12, 278.08 50.93 M198.04 143.01 C220.22 117.21, 244.39 89.61, 278.08 50.93 M203.69 142.61 C223.81 120.36, 243.73 94.98, 277.82 57.33 M203.69 142.61 C223.97 118.49, 244.34 96.99, 277.82 57.33 M208.67 142.97 C225.19 122.83, 241.4 105.16, 278.22 62.97 M208.67 142.97 C232.85 115.92, 255.87 89.02, 278.22 62.97 M214.32 142.58 C226.87 129.28, 241.62 113.1, 277.95 69.37 M214.32 142.58 C233.3 118.62, 254.03 95.81, 277.95 69.37 M219.3 142.94 C231.5 130.66, 242.29 114.17, 277.69 75.77 M219.3 142.94 C239.28 122.62, 256.39 100.66, 277.69 75.77 M224.95 142.54 C245.16 121.51, 261.54 100.18, 278.09 81.41 M224.95 142.54 C238.63 126.17, 251.89 110.98, 278.09 81.41 M229.93 142.9 C244.84 124.98, 258.64 110.98, 277.83 87.81 M229.93 142.9 C241.63 130.71, 253.4 117.2, 277.83 87.81 M235.58 142.51 C249.26 124.93, 266.1 108.59, 278.22 93.45 M235.58 142.51 C250.96 124.33, 267.05 104.61, 278.22 93.45 M240.56 142.87 C248.11 133.65, 260.58 120.1, 277.96 99.85 M240.56 142.87 C251.94 130.53, 260.54 119.47, 277.96 99.85 M246.21 142.47 C255.44 132.28, 267.99 119.14, 277.7 106.25 M246.21 142.47 C252.29 134.4, 258.51 127.46, 277.7 106.25 M253.16 140.57 C262.18 132.48, 267.89 122.39, 278.75 111.14 M253.16 140.57 C261.92 131.11, 271.73 120.52, 278.75 111.14 M260.12 138.67 C264.79 129.44, 274.73 124.39, 277.83 118.29 M260.12 138.67 C264.42 132.84, 270.35 127.76, 277.83 118.29" stroke="#ffec99" stroke-width="0.5" fill="none"></path><path d="M32 0 M32 0 C95.87 -1.53, 162.3 -1.94, 245 0 M32 0 C96.41 2.45, 161.26 1.88, 245 0 M245 0 C267.29 -0.11, 276.76 9.89, 277 32 M245 0 C267.6 -1.33, 277.48 12.77, 277 32 M277 32 C276.4 55.08, 276.95 75.73, 277 109 M277 32 C276.31 57.53, 277.31 84.44, 277 109 M277 109 C275.23 131.11, 265.43 140.66, 245 141 M277 109 C278.73 130.63, 264.61 139.38, 245 141 M245 141 C166.42 139.63, 89.39 140.86, 32 141 M245 141 C184.71 139.84, 124.45 139.07, 32 141 M32 141 C8.84 139.75, -1.05 129.24, 0 109 M32 141 C9.86 142.55, 0.59 128.52, 0 109 M0 109 C-0.1 93.64, -1.77 76.89, 0 32 M0 109 C-0.23 87.4, -0.25 64.31, 0 32 M0 32 C1.46 9.25, 12.5 1.95, 32 0 M0 32 C-0.32 11.18, 9.86 -2.18, 32 0" stroke="#1971c2" stroke-width="1" fill="none"></path></g><g transform="translate(688.283332824707 313) rotate(0 59.21666717529297 12.5)"><text x="59.21666717529297" y="0" font-family="Virgil, Segoe UI Emoji" font-size="20px" fill="#1971c2" text-anchor="middle" style="white-space: pre;" direction="ltr" dominant-baseline="text-before-edge">Web browser</text></g><g mask="url(#mask-dq2WnyUBNaMe58p618wm9)" stroke-linecap="round"><g transform="translate(262 322.30647828073245) rotate(0 172.26496937378772 -1.25875723924878)"><path d="M0.53 0.9 C57.94 0.56, 288.02 -1.19, 345.18 -1.43 M-0.65 0.33 C56.64 -0.45, 287.67 -3, 344.86 -3.42" stroke="#e03131" stroke-width="1" fill="none"></path></g><g transform="translate(262 322.30647828073245) rotate(0 172.26496937378772 -1.25875723924878)"><path d="M30.15 -7.58 C18.99 -6.53, 10.46 -0.64, 2.17 2.67 M28.91 -10.35 C18.94 -6.79, 7.44 -2.47, 0.1 0.38" stroke="#e03131" stroke-width="1" fill="none"></path></g><g transform="translate(262 322.30647828073245) rotate(0 172.26496937378772 -1.25875723924878)"><path d="M30.3 12.94 C18.98 6.62, 10.4 5.13, 2.17 2.67 M29.06 10.17 C18.93 5.97, 7.38 2.53, 0.1 0.38" stroke="#e03131" stroke-width="1" fill="none"></path></g><g transform="translate(262 322.30647828073245) rotate(0 172.26496937378772 -1.25875723924878)"><path d="M318.27 9.08 C327.21 2.34, 338.88 0.69, 346.5 -1.65 M317.03 6.31 C328.22 2.41, 337.98 -1.2, 344.42 -3.94" stroke="#e03131" stroke-width="1" fill="none"></path></g><g transform="translate(262 322.30647828073245) rotate(0 172.26496937378772 -1.25875723924878)"><path d="M318.07 -11.44 C327.19 -10.8, 338.93 -5.08, 346.5 -1.65 M316.83 -14.21 C328.2 -10.34, 338.03 -6.2, 344.42 -3.94" stroke="#e03131" stroke-width="1" fill="none"></path></g></g><mask id="mask-dq2WnyUBNaMe58p618wm9"><rect x="0" y="0" fill="#fff" width="706" height="423.9718959499415"></rect><rect x="370.2666664123535" y="308.9737694461279" fill="#000" width="127.46666717529297" height="25" opacity="1"></rect></mask><g transform="translate(370.2666664123535 308.9737694461279) rotate(0 63.998302961434206 12.073951595355766)"><text x="63.733333587646484" y="0" font-family="Virgil, Segoe UI Emoji" font-size="20px" fill="#e03131" text-anchor="middle" style="white-space: pre;" direction="ltr" dominant-baseline="text-before-edge">WebRTC-P2P</text></g><g stroke-linecap="round"><g transform="translate(610 296) rotate(0 -174.7159140334138 -87.03016851688855)"><path d="M0.04 -1.06 C-26.99 -30.52, -105.25 -177.05, -163.33 -176.35 C-221.42 -175.64, -317.68 -26.92, -348.46 3.18 M-1.4 1 C-28.51 -28.85, -106.45 -178.64, -164.46 -178.13 C-222.47 -177.61, -318.92 -26.54, -349.47 4.07" stroke="#e03131" stroke-width="1" fill="none"></path></g><g transform="translate(610 296) rotate(0 -174.7159140334138 -87.03016851688855)"><path d="M-26.86 -18 C-18.91 -14.93, -16.32 -10.87, 0.46 -1.58 M-24.67 -17.8 C-19.11 -13.36, -12.85 -10.28, 0.98 -1.13" stroke="#e03131" stroke-width="1" fill="none"></path></g><g transform="translate(610 296) rotate(0 -174.7159140334138 -87.03016851688855)"><path d="M-10.45 -30.32 C-5.74 -24.78, -6.45 -18.24, 0.46 -1.58 M-8.26 -30.12 C-6.43 -23.04, -3.9 -17.15, 0.98 -1.13" stroke="#e03131" stroke-width="1" fill="none"></path></g><g transform="translate(610 296) rotate(0 -174.7159140334138 -87.03016851688855)"><path d="M-341.55 -24.88 C-340.54 -19.39, -344.94 -12.93, -349.05 3.55 M-339.36 -24.69 C-341.72 -17.85, -343.39 -12.03, -348.53 4" stroke="#e03131" stroke-width="1" fill="none"></path></g><g transform="translate(610 296) rotate(0 -174.7159140334138 -87.03016851688855)"><path d="M-325.56 -12.01 C-327.81 -9.1, -335.41 -5.22, -349.05 3.55 M-323.37 -11.82 C-329.39 -8.06, -334.69 -5.18, -348.53 4" stroke="#e03131" stroke-width="1" fill="none"></path></g></g><mask></mask><g stroke-linecap="round" transform="translate(25 408.5) rotate(0 118 63.5)"><path d="M7.8 8.1 C7.8 8.1, 7.8 8.1, 7.8 8.1 M7.8 8.1 C7.8 8.1, 7.8 8.1, 7.8 8.1 M7.53 14.5 C12.56 11.18, 16.66 5.4, 18.03 2.42 M7.53 14.5 C9.19 11.45, 11.54 8.72, 18.03 2.42 M2.68 26.18 C10.84 15, 20.46 7.23, 24.33 1.27 M2.68 26.18 C7.4 20.88, 13.75 14.02, 24.33 1.27 M2.42 32.58 C6.49 26.15, 12.43 21.41, 29.97 0.88 M2.42 32.58 C13.3 20.24, 24.36 8.3, 29.97 0.88 M2.81 38.22 C13.06 28.65, 18.82 17.13, 34.3 1.99 M2.81 38.22 C12.71 26.46, 22.14 15.55, 34.3 1.99 M2.55 44.62 C12.52 32.69, 20.56 23.56, 39.29 2.35 M2.55 44.62 C16.33 27.09, 31.27 12.42, 39.29 2.35 M2.95 50.26 C18.08 32.05, 33.49 16.87, 44.93 1.96 M2.95 50.26 C12.76 38.46, 22.26 27.22, 44.93 1.96 M2.68 56.66 C14.3 42.11, 28.01 27.25, 49.92 2.32 M2.68 56.66 C12.94 44.85, 22.37 33.27, 49.92 2.32 M2.42 63.06 C14.66 47.54, 27.22 36.26, 55.56 1.93 M2.42 63.06 C23.27 39.77, 43.39 16.55, 55.56 1.93 M2.82 68.7 C19.07 51.51, 32.61 34.3, 60.55 2.29 M2.82 68.7 C15.5 52.47, 29.75 36.1, 60.55 2.29 M2.56 75.1 C21.74 55.18, 36.22 34.95, 66.19 1.89 M2.56 75.1 C19.15 57.43, 34.78 38.55, 66.19 1.89 M2.95 80.74 C18.36 62.67, 34.21 41.38, 71.18 2.25 M2.95 80.74 C25.19 54.17, 48.68 29.86, 71.18 2.25 M2.69 87.14 C23.7 65.05, 41.64 43, 76.82 1.86 M2.69 87.14 C26.01 60.53, 48.91 33.51, 76.82 1.86 M2.43 93.54 C28.44 64.36, 54.73 33.6, 81.81 2.22 M2.43 93.54 C29.11 64.3, 54.63 34.53, 81.81 2.22 M2.82 99.18 C32.27 62.98, 65.53 29.54, 87.45 1.82 M2.82 99.18 C23.75 75.84, 43.67 54.09, 87.45 1.82 M3.22 104.82 C21.81 84.62, 40.9 63.58, 92.44 2.18 M3.22 104.82 C33.32 69.19, 62.83 34.59, 92.44 2.18 M4.27 109.71 C36.38 74.19, 68.01 38.48, 98.08 1.79 M4.27 109.71 C30.74 77.24, 57.43 47.44, 98.08 1.79 M4.66 115.35 C35.77 82.16, 63.06 47.13, 103.07 2.15 M4.66 115.35 C32.37 84.14, 58.43 54.49, 103.07 2.15 M7.68 117.98 C40.92 78.92, 74.01 39.69, 108.71 1.75 M7.68 117.98 C36.12 86.18, 64.77 54.51, 108.71 1.75 M10.7 120.6 C31.98 98.45, 52.33 73.32, 113.7 2.11 M10.7 120.6 C39.8 86.9, 70.1 52.89, 113.7 2.11 M13.72 123.23 C50.14 80.47, 88.28 39.53, 118.69 2.47 M13.72 123.23 C36.37 95.81, 59.77 71.01, 118.69 2.47 M17.39 125.1 C58.5 76.88, 100.6 29.37, 124.33 2.08 M17.39 125.1 C57.79 78.88, 96.92 32.92, 124.33 2.08 M21.72 126.21 C51.85 91.88, 82.88 59.15, 129.32 2.44 M21.72 126.21 C52.9 90.8, 82.92 56.25, 129.32 2.44 M25.4 128.08 C64.6 86.3, 101.34 39.22, 134.96 2.04 M25.4 128.08 C61.89 85.17, 99.1 42.08, 134.96 2.04 M31.04 127.69 C61.95 87.41, 96.6 50.41, 139.95 2.4 M31.04 127.69 C56.52 95.96, 83.97 65.84, 139.95 2.4 M34.72 129.56 C65 98.61, 94.82 61.73, 145.59 2.01 M34.72 129.56 C58.39 102.06, 83.92 73.84, 145.59 2.01 M39.7 129.92 C77.49 85.79, 115.89 43.12, 150.58 2.37 M39.7 129.92 C66.39 99.37, 93.86 66.42, 150.58 2.37 M45.35 129.52 C79.64 90.36, 116.76 49.95, 156.22 1.98 M45.35 129.52 C79.97 89.75, 114.43 51.49, 156.22 1.98 M50.33 129.88 C92.77 85.03, 132.46 37.91, 161.21 2.34 M50.33 129.88 C73.13 100.66, 97.13 73.03, 161.21 2.34 M55.98 129.49 C95.3 80.18, 137.23 36.52, 166.85 1.94 M55.98 129.49 C87.89 93.43, 117.27 58.49, 166.85 1.94 M60.96 129.85 C88.63 96.55, 121 61.08, 171.84 2.3 M60.96 129.85 C86.9 97.51, 114.76 65.54, 171.84 2.3 M66.61 129.45 C99.22 92.38, 134.81 51.92, 177.48 1.91 M66.61 129.45 C97.85 92.46, 127.79 56.33, 177.48 1.91 M71.6 129.81 C94.28 103.24, 116.13 78.77, 182.47 2.27 M71.6 129.81 C99.29 98.25, 127.25 67.25, 182.47 2.27 M77.24 129.42 C104.96 95.23, 136.11 63.9, 188.11 1.87 M77.24 129.42 C106 96.99, 134.88 63.89, 188.11 1.87 M82.23 129.78 C112.6 93.45, 145.14 60.61, 193.1 2.23 M82.23 129.78 C109.36 98.77, 136.5 66.94, 193.1 2.23 M87.87 129.38 C110.42 103.43, 134.39 75.73, 198.74 1.84 M87.87 129.38 C111.77 101.14, 137.02 72.35, 198.74 1.84 M92.86 129.74 C118.47 102.96, 141.22 75.52, 205.04 0.69 M92.86 129.74 C128.36 89.75, 163.76 48.49, 205.04 0.69 M98.5 129.35 C122.52 102.72, 147.67 76.43, 210.03 1.05 M98.5 129.35 C141.09 80.31, 182.84 31.47, 210.03 1.05 M103.49 129.71 C140.01 89.38, 175.16 49.05, 214.36 2.16 M103.49 129.71 C133.02 98.34, 159.68 65.05, 214.36 2.16 M109.13 129.31 C142.63 89.07, 176.11 53.71, 219.35 2.52 M109.13 129.31 C151.34 80.93, 195.04 32.32, 219.35 2.52 M114.12 129.67 C150.52 90.8, 187.47 47.72, 223.02 4.39 M114.12 129.67 C144.45 93.32, 176.32 58.95, 223.02 4.39 M119.76 129.28 C144.93 101.89, 168.49 71.91, 226.04 7.02 M119.76 129.28 C153.93 89.17, 186.97 50.59, 226.04 7.02 M124.75 129.64 C159.29 93.84, 189.4 54.21, 229.06 9.64 M124.75 129.64 C164.66 84.74, 202.35 40.83, 229.06 9.64 M130.39 129.25 C164.19 89.91, 200.58 48.47, 232.08 12.27 M130.39 129.25 C159.74 95.89, 188.41 62.28, 232.08 12.27 M135.38 129.61 C172.33 87.22, 210.31 43.2, 233.13 17.15 M135.38 129.61 C164.15 97.11, 192.44 64.71, 233.13 17.15 M141.02 129.21 C164.21 102.01, 186.72 74.76, 234.84 21.29 M141.02 129.21 C161.34 104.63, 183.29 79.38, 234.84 21.29 M146.01 129.57 C166.17 106.4, 186.7 82.19, 236.54 25.42 M146.01 129.57 C179.93 91.33, 213.53 53.07, 236.54 25.42 M150.99 129.93 C186.31 89.51, 220.47 50.75, 236.94 31.06 M150.99 129.93 C177.74 99.8, 203.5 68.97, 236.94 31.06 M156.64 129.54 C185.1 97.69, 214.35 62.16, 236.67 37.46 M156.64 129.54 C184.3 97.25, 211.59 66.31, 236.67 37.46 M161.62 129.9 C184.95 101.35, 207.84 75.69, 237.07 43.1 M161.62 129.9 C186.5 101.72, 212.21 73.49, 237.07 43.1 M167.27 129.5 C182.43 111, 198.96 90.73, 236.81 49.5 M167.27 129.5 C187.98 105.12, 209.23 81.71, 236.81 49.5 M172.25 129.86 C191.13 106.1, 212.56 84.3, 236.55 55.9 M172.25 129.86 C193.04 104.51, 214.23 81.15, 236.55 55.9 M177.9 129.47 C198.54 105.93, 221.4 80.53, 236.94 61.54 M177.9 129.47 C196.65 106.31, 217.19 82.96, 236.94 61.54 M182.88 129.83 C193.19 117.32, 203.87 102.34, 236.68 67.94 M182.88 129.83 C201.77 109.12, 219.56 87.24, 236.68 67.94 M188.53 129.43 C205.48 107.99, 224.53 89.23, 237.07 73.58 M188.53 129.43 C201.76 113.77, 217.91 95.96, 237.07 73.58 M193.51 129.79 C201.07 118.5, 213.89 108.58, 236.81 79.98 M193.51 129.79 C205.33 114.52, 218.74 99.93, 236.81 79.98 M199.16 129.4 C211.8 113.96, 228.34 96.41, 237.21 85.63 M199.16 129.4 C206.99 119.62, 217.23 108.28, 237.21 85.63 M205.46 128.25 C214.1 117.62, 218.18 111, 236.95 92.02 M205.46 128.25 C213.23 119.37, 222.07 110.66, 236.95 92.02 M211.75 127.1 C216.1 121.42, 224.5 114.49, 238 96.91 M211.75 127.1 C221.63 116.92, 230.52 106.48, 238 96.91 M218.71 125.2 C224.22 118.9, 233.99 107.59, 237.08 104.06 M218.71 125.2 C222.47 120.68, 226.86 116.68, 237.08 104.06" stroke="#ffec99" stroke-width="0.5" fill="none"></path><path d="M31.75 0 M31.75 0 C99.5 -0.36, 168.75 0.66, 204.25 0 M31.75 0 C75.36 -1.32, 120.53 -0.93, 204.25 0 M204.25 0 C223.86 1.97, 237.42 11.7, 236 31.75 M204.25 0 C224.17 0.58, 238.12 10.57, 236 31.75 M236 31.75 C235.66 52.18, 233.92 69.76, 236 95.25 M236 31.75 C234.74 50.24, 235.74 67.52, 236 95.25 M236 95.25 C235.66 115.41, 225.11 127.32, 204.25 127 M236 95.25 C237.87 114.48, 227.22 127.39, 204.25 127 M204.25 127 C148.57 125.89, 93.94 127.04, 31.75 127 M204.25 127 C142.77 125.24, 82.99 124.65, 31.75 127 M31.75 127 C9.32 125.96, -1.46 118.41, 0 95.25 M31.75 127 C10.7 127.6, 1.61 116.15, 0 95.25 M0 95.25 C-1.91 72.5, 1.01 48.63, 0 31.75 M0 95.25 C-0.64 75.75, -0.33 58.68, 0 31.75 M0 31.75 C1.21 10.18, 11.15 -0.25, 31.75 0 M0 31.75 C-0.48 10.69, 11.5 0.01, 31.75 0" stroke="#1971c2" stroke-width="1" fill="none"></path></g><g transform="translate(124.13333320617676 459.5) rotate(0 18.866666793823242 12.5)"><text x="18.866666793823242" y="0" font-family="Virgil, Segoe UI Emoji" font-size="20px" fill="#1971c2" text-anchor="middle" style="white-space: pre;" direction="ltr" dominant-baseline="text-before-edge">UAV</text></g><g stroke-linecap="round" transform="translate(24 104.5) rotate(0 118 63.5)"><path d="M7.8 8.1 C7.8 8.1, 7.8 8.1, 7.8 8.1 M7.8 8.1 C7.8 8.1, 7.8 8.1, 7.8 8.1 M7.53 14.5 C11.28 10.99, 16.01 7.16, 18.03 2.42 M7.53 14.5 C11.52 10.03, 14.76 5.77, 18.03 2.42 M2.68 26.18 C9.57 17.48, 16.03 12.02, 24.33 1.27 M2.68 26.18 C10.87 17.56, 17.74 8.12, 24.33 1.27 M2.42 32.58 C7.66 24.83, 14.26 18.61, 29.97 0.88 M2.42 32.58 C7.58 24.54, 13.84 17.53, 29.97 0.88 M2.81 38.22 C14.48 26.34, 25.85 14.28, 34.3 1.99 M2.81 38.22 C10.66 30.72, 16.99 21.8, 34.3 1.99 M2.55 44.62 C14.01 32.56, 26.12 17.19, 39.29 2.35 M2.55 44.62 C10.85 35.2, 17.79 26.56, 39.29 2.35 M2.95 50.26 C16.45 33.34, 32.21 20.55, 44.93 1.96 M2.95 50.26 C13.27 38.74, 22.65 26.1, 44.93 1.96 M2.68 56.66 C16.49 38.95, 29.72 24.05, 49.92 2.32 M2.68 56.66 C14.08 41.88, 28.01 27.81, 49.92 2.32 M2.42 63.06 C23.13 39.62, 43.31 13.81, 55.56 1.93 M2.42 63.06 C21.05 40.9, 38.67 20.75, 55.56 1.93 M2.82 68.7 C13.8 52.41, 29.85 36.68, 60.55 2.29 M2.82 68.7 C17.98 52.43, 31.54 36.11, 60.55 2.29 M2.56 75.1 C20.8 55.04, 38.62 36.26, 66.19 1.89 M2.56 75.1 C25.1 48.14, 47.66 22.77, 66.19 1.89 M2.95 80.74 C18.81 60.41, 36.94 43.21, 71.18 2.25 M2.95 80.74 C18.91 61.89, 34.81 44.22, 71.18 2.25 M2.69 87.14 C32.92 55.39, 60.73 19.88, 76.82 1.86 M2.69 87.14 C26.91 59.95, 51.2 32.04, 76.82 1.86 M2.43 93.54 C18.52 75.28, 37.55 52.83, 81.81 2.22 M2.43 93.54 C23.9 68.12, 44.94 43.91, 81.81 2.22 M2.82 99.18 C32.37 63.61, 64.31 24.72, 87.45 1.82 M2.82 99.18 C30.56 67.67, 56.39 36.23, 87.45 1.82 M3.22 104.82 C23.46 80.62, 46.39 55.12, 92.44 2.18 M3.22 104.82 C38.92 63.65, 74.37 22.77, 92.44 2.18 M4.27 109.71 C36.36 73, 68.17 36.76, 98.08 1.79 M4.27 109.71 C27.14 81.48, 49.77 56.06, 98.08 1.79 M4.66 115.35 C39.34 74.86, 77.75 30.08, 103.07 2.15 M4.66 115.35 C25.98 93.39, 45.21 69.82, 103.07 2.15 M7.68 117.98 C28.58 92.11, 50.85 70.32, 108.71 1.75 M7.68 117.98 C34.03 88.63, 60.24 57.44, 108.71 1.75 M10.7 120.6 C40.66 85.88, 74.04 45.54, 113.7 2.11 M10.7 120.6 C41.44 85.98, 71.57 51.9, 113.7 2.11 M13.72 123.23 C52.2 78.95, 94.13 33.81, 118.69 2.47 M13.72 123.23 C44 89.1, 76.27 53.83, 118.69 2.47 M17.39 125.1 C48.53 86.81, 80.5 50.11, 124.33 2.08 M17.39 125.1 C37.56 100.35, 59.61 75.04, 124.33 2.08 M21.72 126.21 C48.27 94.5, 76.7 62.91, 129.32 2.44 M21.72 126.21 C59.9 79.8, 99.68 35.14, 129.32 2.44 M25.4 128.08 C49.26 98.45, 76.3 68.69, 134.96 2.04 M25.4 128.08 C58.56 89.58, 93.42 48.96, 134.96 2.04 M31.04 127.69 C67.45 85.39, 104.89 39.93, 139.95 2.4 M31.04 127.69 C60.49 92.69, 91.11 59.12, 139.95 2.4 M34.72 129.56 C74.24 84.75, 112.26 41.17, 145.59 2.01 M34.72 129.56 C69.01 87.66, 106.1 46.32, 145.59 2.01 M39.7 129.92 C78.75 85.34, 115.74 42.61, 150.58 2.37 M39.7 129.92 C73.8 90.99, 106.54 52.84, 150.58 2.37 M45.35 129.52 C79.87 87.15, 116.17 50.17, 156.22 1.98 M45.35 129.52 C86.38 83.98, 127.22 36.7, 156.22 1.98 M50.33 129.88 C77.34 100.25, 99.22 69.66, 161.21 2.34 M50.33 129.88 C83.87 89.01, 116.63 50.8, 161.21 2.34 M55.98 129.49 C95.66 82.83, 138.43 35.4, 166.85 1.94 M55.98 129.49 C87.74 91.29, 122.3 53.01, 166.85 1.94 M60.96 129.85 C105.45 77.03, 151.07 27.19, 171.84 2.3 M60.96 129.85 C86.06 102.13, 110.66 75.76, 171.84 2.3 M66.61 129.45 C108.94 81.83, 148.62 38.06, 177.48 1.91 M66.61 129.45 C89.54 103.26, 112.85 76.76, 177.48 1.91 M71.6 129.81 C107.52 87.91, 145.28 45.79, 182.47 2.27 M71.6 129.81 C113.38 83.01, 152.63 36.5, 182.47 2.27 M77.24 129.42 C114.9 85.69, 153.31 43.3, 188.11 1.87 M77.24 129.42 C111.16 88.22, 147.15 48.11, 188.11 1.87 M82.23 129.78 C115.2 91.96, 152.21 52.46, 193.1 2.23 M82.23 129.78 C117.03 88.09, 154.38 45.92, 193.1 2.23 M87.87 129.38 C128.44 83.37, 164.77 40.92, 198.74 1.84 M87.87 129.38 C118.69 95, 148.48 60.9, 198.74 1.84 M92.86 129.74 C124.3 94.54, 153.95 57.94, 205.04 0.69 M92.86 129.74 C127.79 90.55, 161.48 51.8, 205.04 0.69 M98.5 129.35 C142.39 82.37, 184.43 32.92, 210.03 1.05 M98.5 129.35 C126.19 96.3, 154.47 63.64, 210.03 1.05 M103.49 129.71 C131.32 99.61, 156.33 68.84, 214.36 2.16 M103.49 129.71 C138.25 86.22, 175.89 44.19, 214.36 2.16 M109.13 129.31 C144.44 92.02, 179.19 51.29, 219.35 2.52 M109.13 129.31 C137.97 94.6, 166.77 59.8, 219.35 2.52 M114.12 129.67 C140.1 100.32, 165.79 69.81, 223.02 4.39 M114.12 129.67 C143 97.1, 170.53 65.79, 223.02 4.39 M119.76 129.28 C154.66 90.77, 188.42 47.16, 226.04 7.02 M119.76 129.28 C146.61 98.99, 175.55 66.33, 226.04 7.02 M124.75 129.64 C160.27 90.97, 193.31 52.27, 229.06 9.64 M124.75 129.64 C166.45 82.8, 206.69 36.64, 229.06 9.64 M130.39 129.25 C158.62 95.89, 187.98 61.2, 232.08 12.27 M130.39 129.25 C168.11 84.22, 208.78 37.67, 232.08 12.27 M135.38 129.61 C160.22 99.02, 186.48 67.64, 233.13 17.15 M135.38 129.61 C157.7 106.78, 177.52 80.47, 233.13 17.15 M141.02 129.21 C171.54 92.76, 206.97 53.43, 234.84 21.29 M141.02 129.21 C173.22 91.6, 208.5 53.08, 234.84 21.29 M146.01 129.57 C164.68 109.49, 184.9 86.76, 236.54 25.42 M146.01 129.57 C174.61 93.14, 205.73 58.11, 236.54 25.42 M150.99 129.93 C182.5 91.92, 211.03 59.47, 236.94 31.06 M150.99 129.93 C176.41 100.55, 201.86 71.34, 236.94 31.06 M156.64 129.54 C184.93 93.68, 218.22 58.91, 236.67 37.46 M156.64 129.54 C179.94 103.89, 202.06 76.56, 236.67 37.46 M161.62 129.9 C183.71 102.57, 208.63 75.71, 237.07 43.1 M161.62 129.9 C179 109.24, 199.37 87.08, 237.07 43.1 M167.27 129.5 C184.13 109.14, 199.95 89.45, 236.81 49.5 M167.27 129.5 C187.9 105.62, 208.31 81.86, 236.81 49.5 M172.25 129.86 C185.33 114.34, 197.05 99.23, 236.55 55.9 M172.25 129.86 C192.76 107.19, 212.54 83.65, 236.55 55.9 M177.9 129.47 C198.03 107.94, 216.53 84.72, 236.94 61.54 M177.9 129.47 C190.32 115, 201.99 101.33, 236.94 61.54 M182.88 129.83 C195 117.16, 206.45 103.05, 236.68 67.94 M182.88 129.83 C199.09 111.83, 215.34 92.22, 236.68 67.94 M188.53 129.43 C203.18 110.67, 222.73 93.35, 237.07 73.58 M188.53 129.43 C201.76 113.9, 215.96 98.22, 237.07 73.58 M193.51 129.79 C211.62 109.72, 224.85 92.51, 236.81 79.98 M193.51 129.79 C205.56 117.25, 216.6 103.37, 236.81 79.98 M199.16 129.4 C212.14 116.98, 224.91 100.03, 237.21 85.63 M199.16 129.4 C205.74 119.64, 213.62 111.05, 237.21 85.63 M205.46 128.25 C211.49 118.73, 219.05 109.92, 236.95 92.02 M205.46 128.25 C216.95 114.85, 229.85 101.19, 236.95 92.02 M211.75 127.1 C217.74 118.09, 225.13 109.78, 238 96.91 M211.75 127.1 C220.08 116.29, 230.15 106.8, 238 96.91 M218.71 125.2 C223.42 121.53, 227.18 115.77, 237.08 104.06 M218.71 125.2 C223.29 119.29, 228.32 115.46, 237.08 104.06" stroke="#b2f2bb" stroke-width="0.5" fill="none"></path><path d="M31.75 0 M31.75 0 C97.11 -2.76, 158.51 -0.74, 204.25 0 M31.75 0 C100.26 -1.52, 167.81 -1.55, 204.25 0 M204.25 0 C223.73 -1.33, 234.3 9.14, 236 31.75 M204.25 0 C227.43 -1.13, 234.86 12.67, 236 31.75 M236 31.75 C235.38 44.74, 235.17 56.4, 236 95.25 M236 31.75 C235.67 44.79, 237 58.69, 236 95.25 M236 95.25 C234.13 114.45, 226.8 125.79, 204.25 127 M236 95.25 C237.95 116.53, 224.89 128.49, 204.25 127 M204.25 127 C141.54 126.24, 84.67 129.13, 31.75 127 M204.25 127 C136 128.93, 69.07 129.28, 31.75 127 M31.75 127 C11.42 128.98, 0.05 118.14, 0 95.25 M31.75 127 C9.11 128.27, -2.17 117.99, 0 95.25 M0 95.25 C-0.87 79.17, -0.16 63.13, 0 31.75 M0 95.25 C0.3 79.37, 1.27 62.55, 0 31.75 M0 31.75 C1.06 11.28, 10.02 -0.99, 31.75 0 M0 31.75 C0.03 11.25, 12.4 -1.26, 31.75 0" stroke="#1971c2" stroke-width="1" fill="none"></path></g><g transform="translate(117.6833324432373 155.5) rotate(0 24.316667556762695 12.5)"><text x="24.316667556762695" y="0" font-family="Virgil, Segoe UI Emoji" font-size="20px" fill="#1971c2" text-anchor="middle" style="white-space: pre;" direction="ltr" dominant-baseline="text-before-edge">Unity</text></g></svg>